<svg width="164" height="34" viewBox="0 0 164 34" fill="none" xmlns="http://www.w3.org/2000/svg">
<path d="M42.05 16.598C42.05 13.462 43.016 10.8673 44.948 8.814C46.88 6.75133 49.344 5.72 52.34 5.72C53.544 5.72 54.706 5.88333 55.826 6.21C56.9553 6.53667 57.9213 6.994 58.724 7.582L57.324 9.052C56.7547 8.464 56.036 8.016 55.168 7.708C54.3 7.39067 53.376 7.232 52.396 7.232C50.0253 7.232 48.1493 7.98333 46.768 9.486C45.3867 10.9793 44.7053 13.2053 44.724 16.164C44.7427 19.2627 45.4847 21.638 46.95 23.29C48.4153 24.9327 50.31 25.754 52.634 25.754C54.1647 25.754 55.476 25.46 56.568 24.872C57.66 24.284 58.5 23.5467 59.088 22.66L60.194 23.598C59.326 24.8113 58.206 25.7493 56.834 26.412C55.4713 27.0747 53.964 27.406 52.312 27.406C49.3907 27.406 46.95 26.454 44.99 24.55C43.03 22.6367 42.05 19.986 42.05 16.598ZM56.68 8.478L57.8 6.182H58.892V12.44H57.59L56.68 8.478ZM59.8573 27V25.852L62.4053 25.362L64.6593 19.412L69.4473 5.888H71.1553L75.8873 18.74L78.4073 25.362L80.7733 25.852V27H73.2973V25.852L75.6773 25.418L73.8433 19.86L69.7973 9.192L65.9613 19.804L64.1693 25.432L66.7873 25.852V27H59.8573ZM65.0373 20.448L65.5273 19.062L70.2733 19.202L74.8233 19.048L75.1873 20.448H65.0373ZM81.089 27V20.434H82.405L83.385 24.648L82.279 27H81.089ZM81.565 11.054C81.565 9.542 82.0597 8.27733 83.049 7.26C84.0477 6.24267 85.4477 5.734 87.249 5.734C88.341 5.734 89.349 5.89267 90.273 6.21C91.197 6.518 92.009 6.98 92.709 7.596L91.659 8.968C91.1923 8.51067 90.6043 8.114 89.895 7.778C89.1857 7.43267 88.3177 7.26 87.291 7.26C86.1057 7.26 85.205 7.54 84.589 8.1C83.973 8.66 83.665 9.40667 83.665 10.34C83.665 11.264 84.0383 12.0527 84.785 12.706C85.5317 13.35 86.8337 14.0313 88.691 14.75C90.3337 15.394 91.729 16.22 92.877 17.228C94.0343 18.2267 94.613 19.5707 94.613 21.26C94.613 22.996 94.0343 24.438 92.877 25.586C91.729 26.734 90.2357 27.308 88.397 27.308C86.745 27.308 85.3963 26.9907 84.351 26.356C83.315 25.712 82.3863 24.7833 81.565 23.57L83.007 22.926C83.2683 23.766 83.9077 24.4707 84.925 25.04C85.9423 25.6 87.1323 25.88 88.495 25.88C89.699 25.88 90.665 25.5207 91.393 24.802C92.121 24.074 92.485 23.164 92.485 22.072C92.485 20.7467 92.009 19.7153 91.057 18.978C90.1143 18.2313 88.7377 17.536 86.927 16.892C84.995 16.2013 83.6183 15.4313 82.797 14.582C81.9757 13.7233 81.565 12.5473 81.565 11.054ZM91.099 8.576L92.037 6.182H93.227V12.09H91.925L91.099 8.576ZM96.3827 27V25.852L99.2667 25.362L99.2947 16.444L99.2667 7.778L96.3827 7.302V6H104.657V7.302L101.787 7.778L101.759 16.444L101.787 25.348L104.657 25.852V27H96.3827ZM106.801 27V25.852L109.545 25.348L109.573 16.038L109.545 7.778L106.801 7.302V6H120.927V10.774H119.667L118.925 7.358H112.975L112.051 7.624L112.023 16.038L112.051 25.418L113.101 25.754H119.779L121.081 21.806H122.341L121.781 27H106.801ZM110.833 16.556V15.436L117.063 15.31L117.665 13H118.925V18.992H117.665L117.063 16.682L110.833 16.556Z" fill="black"/>
<path d="M133.354 17.5L140.5 10.3536L147.646 17.5L140.5 24.6464L133.354 17.5Z" stroke="black" stroke-width="0.5"/>
<path d="M141.354 17.5L148.5 10.3536L155.646 17.5L148.5 24.6464L141.354 17.5Z" stroke="black" stroke-width="0.5"/>
<path d="M149.354 17.5L156.5 10.3536L163.646 17.5L156.5 24.6464L149.354 17.5Z" stroke="black" stroke-width="0.5"/>
<path d="M0.353554 17.5L7.5 10.3536L14.6464 17.5L7.5 24.6464L0.353554 17.5Z" stroke="black" stroke-width="0.5"/>
<path d="M8.35355 17.5L15.5 10.3536L22.6464 17.5L15.5 24.6464L8.35355 17.5Z" stroke="black" stroke-width="0.5"/>
<path d="M16.3536 17.5L23.5 10.3536L30.6464 17.5L23.5 24.6464L16.3536 17.5Z" stroke="black" stroke-width="0.5"/>
</svg>
