<svg width="43" height="43" viewBox="0 0 43 43" fill="none" xmlns="http://www.w3.org/2000/svg">
<path d="M22 10.2188C16 10.2188 11.2188 15.0938 11.2188 21C11.2188 27 16 31.7812 22 31.7812C27.9062 31.7812 32.7812 27 32.7812 21C32.7812 15.0938 27.9062 10.2188 22 10.2188ZM22 28.0312C18.1562 28.0312 14.9688 24.9375 14.9688 21C14.9688 17.1562 18.0625 14.0625 22 14.0625C25.8438 14.0625 28.9375 17.1562 28.9375 21C28.9375 24.9375 25.8438 28.0312 22 28.0312ZM35.6875 9.84375C35.6875 11.25 34.5625 12.375 33.1562 12.375C31.75 12.375 30.625 11.25 30.625 9.84375C30.625 8.4375 31.75 7.3125 33.1562 7.3125C34.5625 7.3125 35.6875 8.4375 35.6875 9.84375ZM42.8125 12.375C42.625 9 41.875 6 39.4375 3.5625C37 1.125 34 0.375 30.625 0.1875C27.1562 0 16.75 0 13.2812 0.1875C9.90625 0.375 7 1.125 4.46875 3.5625C2.03125 6 1.28125 9 1.09375 12.375C0.90625 15.8438 0.90625 26.25 1.09375 29.7188C1.28125 33.0938 2.03125 36 4.46875 38.5312C7 40.9688 9.90625 41.7188 13.2812 41.9062C16.75 42.0938 27.1562 42.0938 30.625 41.9062C34 41.7188 37 40.9688 39.4375 38.5312C41.875 36 42.625 33.0938 42.8125 29.7188C43 26.25 43 15.8438 42.8125 12.375ZM38.3125 33.375C37.6562 35.25 36.1562 36.6562 34.375 37.4062C31.5625 38.5312 25 38.25 22 38.25C18.9062 38.25 12.3438 38.5312 9.625 37.4062C7.75 36.6562 6.34375 35.25 5.59375 33.375C4.46875 30.6562 4.75 24.0938 4.75 21C4.75 18 4.46875 11.4375 5.59375 8.625C6.34375 6.84375 7.75 5.4375 9.625 4.6875C12.3438 3.5625 18.9062 3.84375 22 3.84375C25 3.84375 31.5625 3.5625 34.375 4.6875C36.1562 5.34375 37.5625 6.84375 38.3125 8.625C39.4375 11.4375 39.1562 18 39.1562 21C39.1562 24.0938 39.4375 30.6562 38.3125 33.375Z" fill="white"/>
</svg>
