<svg width="18" height="17" viewBox="0 0 18 17" xmlns="http://www.w3.org/2000/svg">
<path d="M16.6562 1.15625C16.4375 1 16.125 0.96875 15.875 1.125L1.375 9.375C1.125 9.5 0.96875 9.78125 1 10.0625C1 10.3438 1.1875 10.5938 1.4375 10.7188L6.25 12.7188V16.25C6.25 16.5312 6.375 16.7812 6.625 16.9375C6.75 16.9688 6.875 17 6.96875 17C7.09375 17 7.25 16.9688 7.375 16.9062L10.8438 14.6562L13.9062 15.9688C14 16 14.0938 16.0312 14.2188 16.0312C14.3438 16.0312 14.4688 15.9688 14.5625 15.9062C14.7812 15.8125 14.9062 15.5938 14.9375 15.375L16.9375 1.875C17.0312 1.59375 16.9062 1.3125 16.6562 1.15625ZM12.5312 4.75L6.6875 11.2812L3.4375 9.90625L12.5312 4.75ZM7.71875 14.875V13.3438L9.15625 13.9688L7.71875 14.875ZM13.625 14.1875L8.125 11.875L15.125 4.09375L13.625 14.1875Z"/>
</svg>
